# xmcd CD database file
#
# Track frame offsets:
#	150
#	10447
#	19441
#	26953
#	36972
#	47269
#	62987
#	71521
#	79154
#	83661
#	97850
#	106071
#	113908
#	121023
#
# Disc length: 1680 seconds
#
# Revision: 0
# Processed by: cddbd v1.5.2PL0 Copyright (c) Steve Scherf et al.
# Submitted via: CDex 1.51
#
DISCID=ac068e0e
DTITLE=Johnny Cash - There You Go
DYEAR=1900
DGENRE=Country
TTITLE0=There You Go (Live-Tv)
TTITLE1=I Got A Woman (Live-Tv)
TTITLE2=Hey Porter (Live-Tv)
TTITLE3=Goodbye Little Darling Goodbye (Live-Tv)
TTITLE4=Bandana (Live-Tv)
TTITLE5=Ballad Of The Harp Weaver (Live-Tv)
TTITLE6=Luther Played The Boogie (Live-Tv)
TTITLE7=Pickin' Time (Live-Tv)
TTITLE8=Cry Cry Cry (Live-Tv)
TTITLE9=Ballad Of Ira Hayes (Live-Tv)
TTITLE10=Five Feet High And Rising (Live-Tv)
TTITLE11=Big River (Live-Tv)
TTITLE12=I Got Stripes (Live-Tv)
TTITLE13=Get Rhythm (Live-Tv)
EXTD=
EXTT0=
EXTT1=
EXTT2=
EXTT3=
EXTT4=
EXTT5=
EXTT6=
EXTT7=
EXTT8=
EXTT9=
EXTT10=
EXTT11=
EXTT12=
EXTT13=
PLAYORDER=
